<svg width="120" height="25" viewBox="0 0 120 25" fill="none" xmlns="http://www.w3.org/2000/svg">
<path d="M1.09067 18.6739C0.303691 17.8285 0 16.5476 0 13.8078V5.7394H3.19442V13.4998C3.19442 15.5231 3.39727 16.2151 3.67547 16.5991C4.00579 17.0089 4.5378 17.2138 5.47663 17.2138C7.42852 17.2138 8.36622 16.42 8.69654 16.2151V5.7394H11.891V14.7807C11.891 16.6764 11.9929 18.7254 12.1947 19.3143H9.05121C8.84838 19.1856 8.69654 17.88 8.72203 16.2912C7.70786 18.1353 6.16051 19.7499 3.80293 19.7499C2.48504 19.7499 1.74907 19.3647 1.09067 18.6739Z" fill="black"/>
<path d="M14.9592 5.73936H17.8754L18.0783 8.55644C19.2953 6.89151 20.8925 5.32955 23.3011 5.32955C24.5691 5.32955 25.4824 5.68786 26.0898 6.35406C26.7748 7.17368 27.0032 8.63372 27.0032 11.1944V19.3143H23.8087V11.5538C23.8087 9.52945 23.7323 8.89011 23.4031 8.53072C23.1492 8.22391 22.7181 7.94177 21.7803 7.94177C19.8783 7.94177 18.5349 8.55644 18.1803 8.55644V19.3143H14.9592V5.73936Z" fill="black"/>
<path d="M41.6319 5.73939L36.5355 20.1081C35.293 23.6172 33.9995 25 31.3371 25C30.4758 25 29.9183 24.897 29.5636 24.7694V22.2848H30.5523C32.2504 22.2848 32.8844 21.8492 33.8221 19.5449L28.5483 5.73939H31.9467L34.9128 15.0875L35.3185 17.3157L35.6222 15.0875L38.4375 5.73939H41.6319Z" fill="black"/>
<path d="M54.1224 12.6366V12.4082C54.1224 9.14102 52.4211 7.22078 49.6966 7.22078C46.9744 7.22078 45.3284 9.34143 45.3284 12.4653V12.6949C45.3284 15.7605 46.9744 17.8812 49.6966 17.8812C52.3922 17.8812 54.1224 15.8747 54.1224 12.6366ZM45.4137 16.9071V19.3144H43.4851V2.28882e-05H45.4137V8.224C46.3492 6.53331 47.9952 5.5021 50.0945 5.5021C53.6968 5.5021 56.2218 8.19491 56.2218 12.4933V12.5224C56.2218 16.8208 53.6968 19.601 50.0945 19.601C48.0229 19.601 46.378 18.5687 45.4137 16.9071Z" fill="black"/>
<path d="M58.5061 5.78749H60.4635V8.56763C60.9468 6.76272 62.053 5.73039 64.4915 5.73039H65.1166V7.65063H63.9528C61.2305 7.65063 60.4924 9.2551 60.4924 12.5223V19.3143H58.5061V5.78749Z" fill="black"/>
<path d="M75.5102 14.3272V11.5762C74.7166 12.2928 73.0994 12.5515 71.5399 12.9232C69.7798 13.3531 68.248 13.9264 68.248 15.7033C68.248 17.1074 69.2134 18.0535 71.029 18.0535C73.269 18.0535 75.0292 16.8779 75.5102 14.3272ZM66.2063 15.7895C66.2063 12.8661 68.5317 12.1215 71.2839 11.5191C73.3555 11.032 75.0292 10.8316 75.5102 9.94371V9.77128C75.5102 8.10969 74.5182 7.16357 72.2205 7.16357C70.0635 7.16357 68.6182 8.02347 68.5605 10.0008V10.1441H66.5466C66.6031 7.10647 68.9296 5.52998 72.2205 5.52998C75.5679 5.52998 77.4122 7.04935 77.4122 10.2583V17.7087L77.44 19.3143H75.4825V16.935C74.4328 18.9123 72.5885 19.6289 70.7164 19.6289C67.9088 19.6289 66.2063 18.0535 66.2063 15.7895Z" fill="black"/>
<path d="M80.3201 5.78749H82.2775V8.96847C82.9869 6.76272 84.4899 5.50198 86.8164 5.50198C89.6539 5.50198 91.4407 7.4211 91.4407 10.8607V19.3143H89.4544V10.9749C89.4544 8.53854 88.3194 7.27779 86.3054 7.27779C83.6397 7.27779 82.3052 9.51377 82.3052 13.4684V19.3143H80.3201V5.78749Z" fill="black"/>
<path d="M104.472 12.6366V12.4082C104.472 9.31346 102.827 7.22078 100.102 7.22078C97.38 7.22078 95.6486 9.22724 95.6486 12.4653V12.6949C95.6486 15.9609 97.3511 17.8812 100.102 17.8812C102.798 17.8812 104.472 15.7034 104.472 12.6366ZM93.5781 12.5795C93.5781 8.28109 96.0743 5.5021 99.7054 5.5021C101.776 5.5021 103.422 6.53331 104.387 8.224V2.28882e-05H106.316V19.3144H104.387V16.878C103.451 18.5687 101.776 19.601 99.6777 19.601C96.1031 19.601 93.5781 16.9351 93.5781 12.5795Z" fill="black"/>
<path d="M108.338 16.9641L109.956 16.018C111.033 17.4512 112.707 18.0244 114.21 18.0244C116.054 18.0244 117.218 17.1365 117.218 15.6743C117.218 14.184 115.516 13.8122 113.275 13.267C110.665 12.6657 108.708 11.9491 108.708 9.42759C108.708 7.1636 110.75 5.50201 113.445 5.50201C115.714 5.50201 117.53 6.47613 118.892 8.08063L117.302 9.05475C116.338 7.82309 114.919 7.13451 113.416 7.13451C111.714 7.13451 110.608 7.99441 110.608 9.31337C110.608 10.7746 111.799 11.0612 114.239 11.5762C116.622 12.1215 119.118 12.9523 119.118 15.5309C119.118 17.9673 117.104 19.658 114.155 19.658C111.772 19.658 109.587 18.7119 108.338 16.9641Z" fill="black"/>
</svg>
