<svg width="101" height="22" viewBox="0 0 101 22" fill="none" xmlns="http://www.w3.org/2000/svg">
<path d="M1.20718 16.6211C0.546116 15.911 0.291016 14.8351 0.291016 12.5336V5.75619H2.97432V12.2749C2.97432 13.9745 3.14472 14.5557 3.37841 14.8783C3.65587 15.2226 4.10276 15.3947 4.89137 15.3947C6.53096 15.3947 7.31862 14.7278 7.59609 14.5557V5.75619H10.2794V13.3509C10.2794 14.9432 10.3651 16.6644 10.5345 17.1591H7.89401C7.72364 17.0509 7.59609 15.9543 7.6175 14.6197C6.7656 16.1687 5.46583 17.525 3.48547 17.525C2.37844 17.525 1.76023 17.2014 1.20718 16.6211Z" fill="white"/>
<path d="M12.8564 5.75616H15.3061L15.4764 8.12251C16.4987 6.72397 17.8404 5.41192 19.8636 5.41192C20.9287 5.41192 21.6959 5.7129 22.2061 6.27251C22.7815 6.96099 22.9733 8.18742 22.9733 10.3384V17.1591H20.29V10.6403C20.29 8.93983 20.2258 8.40279 19.9492 8.1009C19.736 7.84318 19.3738 7.60618 18.5862 7.60618C16.9885 7.60618 15.86 8.12251 15.5621 8.12251V17.1591H12.8564V5.75616Z" fill="white"/>
<path d="M35.2617 5.75619L30.9807 17.8259C29.937 20.7735 28.8504 21.9351 26.614 21.9351C25.8906 21.9351 25.4223 21.8485 25.1243 21.7413V19.6543H25.9548C27.3812 19.6543 27.9138 19.2884 28.7015 17.3528L24.2715 5.75619H27.1261L29.6176 13.6086L29.9584 15.4803L30.2135 13.6086L32.5784 5.75619H35.2617Z" fill="white"/>
<path d="M45.7537 11.5498V11.358C45.7537 8.61353 44.3245 7.00054 42.036 7.00054C39.7493 7.00054 38.3667 8.78188 38.3667 11.4059V11.5988C38.3667 14.1739 39.7493 15.9552 42.036 15.9552C44.3003 15.9552 45.7537 14.2698 45.7537 11.5498ZM38.4384 15.137V17.1591H36.8184V0.935114H38.4384V7.84323C39.2242 6.42306 40.6068 5.55684 42.3702 5.55684C45.3962 5.55684 47.5171 7.8188 47.5171 11.4295V11.4539C47.5171 15.0646 45.3962 17.3999 42.3702 17.3999C40.6301 17.3999 39.2484 16.5327 38.4384 15.137Z" fill="white"/>
<path d="M49.4365 5.79662H51.0808V8.13193C51.4867 6.61582 52.4159 5.74866 54.4642 5.74866H54.9893V7.36166H54.0117C51.725 7.36166 51.105 8.70941 51.105 11.4539V17.1591H49.4365V5.79662Z" fill="white"/>
<path d="M63.7196 12.97V10.6591C63.0529 11.261 61.6945 11.4783 60.3845 11.7905C58.906 12.1517 57.6193 12.6332 57.6193 14.1259C57.6193 15.3053 58.4302 16.1 59.9553 16.1C61.837 16.1 63.3155 15.1125 63.7196 12.97ZM55.9043 14.1983C55.9043 11.7426 57.8576 11.1171 60.1694 10.6111C61.9096 10.202 63.3155 10.0336 63.7196 9.2878V9.14296C63.7196 7.74722 62.8863 6.95249 60.9562 6.95249C59.1444 6.95249 57.9303 7.6748 57.8819 9.33578V9.45617H56.1901C56.2376 6.90452 58.1919 5.58027 60.9562 5.58027C63.768 5.58027 65.3173 6.85654 65.3173 9.55209V15.8103L65.3405 17.1591H63.6963V15.1604C62.8146 16.8214 61.2653 17.4233 59.6927 17.4233C57.3344 17.4233 55.9043 16.1 55.9043 14.1983Z" fill="white"/>
<path d="M67.7598 5.79659H69.404V8.46861C69.9999 6.61579 71.2624 5.55676 73.2167 5.55676C75.6002 5.55676 77.1011 7.16882 77.1011 10.0581V17.1591H75.4326V10.154C75.4326 8.10747 74.4792 7.04844 72.7875 7.04844C70.5483 7.04844 69.4273 8.92666 69.4273 12.2486V17.1591H67.7598V5.79659Z" fill="white"/>
<path d="M88.0469 11.5498V11.358C88.0469 8.75838 86.6652 7.00054 84.3767 7.00054C82.09 7.00054 80.6357 8.68596 80.6357 11.4059V11.5988C80.6357 14.3422 82.0658 15.9552 84.3767 15.9552C86.641 15.9552 88.0469 14.1259 88.0469 11.5498ZM78.8965 11.5019C78.8965 7.8912 80.9932 5.55684 84.0434 5.55684C85.7826 5.55684 87.1652 6.42306 87.9762 7.84323V0.935114H89.5962V17.1591H87.9762V15.1126C87.1894 16.5327 85.7826 17.3999 84.0201 17.3999C81.0174 17.3999 78.8965 15.1605 78.8965 11.5019Z" fill="white"/>
<path d="M91.2939 15.1849L92.6533 14.3902C93.5583 15.5941 94.9642 16.0756 96.2267 16.0756C97.776 16.0756 98.7536 15.3298 98.7536 14.1015C98.7536 12.8496 97.3235 12.5374 95.4409 12.0793C93.2492 11.5743 91.6049 10.9723 91.6049 8.85427C91.6049 6.95253 93.3199 5.55679 95.5843 5.55679C97.4902 5.55679 99.0152 6.37506 100.16 7.72283L98.8244 8.54109C98.0143 7.5065 96.8226 6.92809 95.5601 6.92809C94.13 6.92809 93.2008 7.65041 93.2008 8.75833C93.2008 9.98572 94.2016 10.2265 96.2509 10.6591C98.2527 11.1172 100.349 11.815 100.349 13.9811C100.349 16.0276 98.6577 17.4478 96.1802 17.4478C94.1784 17.4478 92.3433 16.6531 91.2939 15.1849Z" fill="white"/>
</svg>
