<svg width="33" height="28" viewBox="0 0 33 28" fill="none" xmlns="http://www.w3.org/2000/svg">
<path d="M9.16316 1.15789L2.58158 16.0474C1.82632 17.7737 1.39474 19.1763 1.39474 20.6868C1.39474 24.0316 3.87632 26.5132 7.32895 26.5132C10.8895 26.5132 13.2632 24.0316 13.2632 20.6868C13.2632 17.6658 11.4289 15.4 8.62368 14.7526L13.5868 2.23684L9.16316 1.15789ZM26.8579 1.15789L20.2763 16.0474C19.5211 17.7737 19.0895 19.1763 19.0895 20.6868C19.0895 24.0316 21.5711 26.5132 25.0237 26.5132C28.4763 26.5132 30.9579 24.0316 30.9579 20.6868C30.9579 17.6658 29.1237 15.4 26.3184 14.7526L31.2816 2.23684L26.8579 1.15789Z" fill="#6BA8E7"/>
<path d="M9.16316 1.15789L9.31656 0.528962L8.79013 0.400564L8.57106 0.896167L9.16316 1.15789ZM2.58158 16.0474L1.98947 15.7856L1.98849 15.7879L2.58158 16.0474ZM8.62368 14.7526L8.02191 14.514L7.74429 15.2141L8.47812 15.3834L8.62368 14.7526ZM13.5868 2.23684L14.1886 2.47548L14.4628 1.78414L13.7402 1.60791L13.5868 2.23684ZM26.8579 1.15789L27.0113 0.528962L26.4849 0.400564L26.2658 0.896167L26.8579 1.15789ZM20.2763 16.0474L19.6842 15.7856L19.6832 15.7879L20.2763 16.0474ZM26.3184 14.7526L25.7166 14.514L25.439 15.2141L26.1729 15.3834L26.3184 14.7526ZM31.2816 2.23684L31.8834 2.47548L32.1575 1.78414L31.435 1.60791L31.2816 2.23684ZM8.57106 0.896167L1.98948 15.7856L3.17368 16.3091L9.75526 1.41962L8.57106 0.896167ZM1.98849 15.7879C1.21964 17.5453 0.747368 19.0446 0.747368 20.6868H2.04211C2.04211 19.3081 2.43299 18.0021 3.17467 16.3068L1.98849 15.7879ZM0.747368 20.6868C0.747368 24.397 3.52669 27.1605 7.32895 27.1605V25.8658C4.22595 25.8658 2.04211 23.6662 2.04211 20.6868H0.747368ZM7.32895 27.1605C9.26428 27.1605 10.9178 26.4832 12.089 25.312C13.2592 24.1418 13.9105 22.5157 13.9105 20.6868H12.6158C12.6158 22.2027 12.0803 23.4897 11.1735 24.3965C10.2677 25.3023 8.95414 25.8658 7.32895 25.8658V27.1605ZM13.9105 20.6868C13.9105 17.3684 11.8722 14.8379 8.76925 14.1218L8.47812 15.3834C10.9857 15.9621 12.6158 17.9631 12.6158 20.6868H13.9105ZM9.22546 14.9913L14.1886 2.47548L12.9851 1.9982L8.02191 14.514L9.22546 14.9913ZM13.7402 1.60791L9.31656 0.528962L9.00976 1.78683L13.4334 2.86577L13.7402 1.60791ZM26.2658 0.896167L19.6842 15.7856L20.8684 16.3091L27.45 1.41962L26.2658 0.896167ZM19.6832 15.7879C18.9144 17.5453 18.4421 19.0446 18.4421 20.6868H19.7368C19.7368 19.3081 20.1277 18.0021 20.8694 16.3068L19.6832 15.7879ZM18.4421 20.6868C18.4421 24.397 21.2214 27.1605 25.0237 27.1605V25.8658C21.9207 25.8658 19.7368 23.6662 19.7368 20.6868H18.4421ZM25.0237 27.1605C28.826 27.1605 31.6053 24.397 31.6053 20.6868H30.3105C30.3105 23.6662 28.1267 25.8658 25.0237 25.8658V27.1605ZM31.6053 20.6868C31.6053 17.3684 29.567 14.8379 26.464 14.1218L26.1729 15.3834C28.6804 15.9621 30.3105 17.9631 30.3105 20.6868H31.6053ZM26.9202 14.9913L31.8834 2.47548L30.6798 1.9982L25.7166 14.514L26.9202 14.9913ZM31.435 1.60791L27.0113 0.528962L26.7045 1.78683L31.1282 2.86577L31.435 1.60791Z" fill="#6BA8E7"/>
</svg>
