<?xml version="1.0" encoding="UTF-8" standalone="no"?>
<svg
   xmlns:dc="http://purl.org/dc/elements/1.1/"
   xmlns:cc="http://creativecommons.org/ns#"
   xmlns:rdf="http://www.w3.org/1999/02/22-rdf-syntax-ns#"
   xmlns:svg="http://www.w3.org/2000/svg"
   xmlns="http://www.w3.org/2000/svg"
   viewBox="0 0 5333.3335 1108.076"
   height="1108.076"
   width="5333.3335"
   xml:space="preserve"
   id="svg2"
   version="1.1"><metadata
     id="metadata8"><rdf:RDF><cc:Work
         rdf:about=""><dc:format>image/svg+xml</dc:format><dc:type
           rdf:resource="http://purl.org/dc/dcmitype/StillImage" /></cc:Work></rdf:RDF></metadata><defs
     id="defs6"><clipPath
       id="clipPath18"
       clipPathUnits="userSpaceOnUse"><path
         id="path16"
         d="M 0,831.057 H 4000 V 0 H 0 Z" /></clipPath></defs><g
     transform="matrix(1.3333333,0,0,-1.3333333,0,1108.076)"
     id="g10"><g
       id="g12"><g
         clip-path="url(#clipPath18)"
         id="g14"><g
           transform="translate(36.625,210.295)"
           id="g20"><path
             id="path22"
             style="fill:#1b1b1b;fill-opacity:1;fill-rule:nonzero;stroke:none"
             d="M 0,0 C -26.427,28.102 -36.625,70.682 -36.625,161.76 V 429.97 H 70.644 V 171.996 c 0,-67.258 6.812,-90.26 16.154,-103.026 11.092,-13.623 28.957,-20.434 60.483,-20.434 65.545,0 97.033,26.389 108.125,33.2 V 429.97 H 362.675 V 129.416 c 0,-63.015 3.425,-131.128 10.199,-150.706 H 267.316 c -6.811,4.28 -11.91,47.68 -11.054,100.495 C 222.206,17.903 170.246,-35.769 91.078,-35.769 46.823,-35.769 22.109,-22.965 0,0" /></g><g
           transform="translate(502.3262,640.2652)"
           id="g24"><path
             id="path26"
             style="fill:#1b1b1b;fill-opacity:1;fill-rule:nonzero;stroke:none"
             d="m 0,0 h 97.927 l 6.811,-93.646 c 40.868,55.346 94.503,107.269 175.383,107.269 42.58,0 73.25,-11.911 93.646,-34.057 23.003,-27.246 30.67,-75.781 30.67,-160.904 V -451.26 h -107.27 v 257.974 c 0,67.295 -2.567,88.548 -13.622,100.495 -8.524,10.199 -23.002,19.578 -54.491,19.578 -63.87,0 -108.981,-20.433 -120.891,-20.433 V -451.26 H 0 Z" /></g><g
           transform="translate(1398.0718,640.2652)"
           id="g28"><path
             id="path30"
             style="fill:#1b1b1b;fill-opacity:1;fill-rule:nonzero;stroke:none"
             d="m 0,0 -171.139,-477.649 c -41.724,-116.649 -85.16,-162.616 -174.564,-162.616 -28.92,0 -47.642,3.424 -59.552,7.667 v 82.592 h 33.2 c 57.022,0 78.312,14.479 109.801,91.079 L -439.349,0 h 114.118 l 99.601,-310.753 13.623,-74.069 10.198,74.069 L -107.269,0 Z" /></g><g
           transform="translate(1817.3594,410.9874)"
           id="g32"><path
             id="path34"
             style="fill:#1b1b1b;fill-opacity:1;fill-rule:nonzero;stroke:none"
             d="m 0,0 v 7.593 c 0,108.609 -57.133,172.442 -148.621,172.442 -91.413,0 -146.685,-70.495 -146.685,-174.34 v -7.631 c 0,-101.909 55.272,-172.404 146.685,-172.404 C -58.101,-174.34 0,-107.641 0,0 m -292.44,-141.958 v -80.024 h -64.764 v 642.051 h 64.764 V 146.686 c 31.414,56.202 86.686,90.482 157.181,90.482 120.967,0 205.755,-89.515 205.755,-232.404 V 3.796 c 0,-142.888 -84.788,-235.307 -205.755,-235.307 -69.565,0 -124.8,34.318 -157.181,89.553" /></g><g
           transform="translate(1964.6406,638.6646)"
           id="g36"><path
             id="path38"
             style="fill:#1b1b1b;fill-opacity:1;fill-rule:nonzero;stroke:none"
             d="M 0,0 H 65.731 V -92.418 C 81.959,-32.419 119.105,1.898 200.99,1.898 h 20.992 v -63.833 h -39.081 c -91.414,0 -116.202,-53.336 -116.202,-161.946 V -449.66 l -66.699,0 z" /></g><g
           transform="translate(2535.6016,354.7847)"
           id="g40"><path
             id="path42"
             style="fill:#1b1b1b;fill-opacity:1;fill-rule:nonzero;stroke:none"
             d="M 0,0 V 91.45 C -26.65,67.629 -80.955,59.031 -133.323,46.674 -192.43,32.382 -243.868,13.325 -243.868,-45.744 c 0,-46.674 32.419,-78.126 93.386,-78.126 C -75.26,-123.87 -16.154,-84.788 0,0 m -312.428,-48.61 c 0,97.183 78.088,121.934 170.506,141.959 C -72.356,109.54 -16.154,116.202 0,145.718 v 5.732 c 0,55.235 -33.313,86.686 -110.471,86.686 -72.43,0 -120.966,-28.585 -122.901,-94.317 v -4.764 h -67.63 c 1.898,100.979 80.024,153.385 190.531,153.385 112.407,0 174.341,-50.507 174.341,-157.181 v -247.665 l 0.931,-53.374 H -0.931 v 79.093 c -35.248,-65.73 -97.182,-89.552 -160.048,-89.552 -94.279,0 -151.449,52.369 -151.449,127.629" /></g><g
           transform="translate(2697.1006,638.6646)"
           id="g44"><path
             id="path46"
             style="fill:#1b1b1b;fill-opacity:1;fill-rule:nonzero;stroke:none"
             d="m 0,0 h 65.731 v -105.743 c 23.821,73.324 74.292,115.234 152.417,115.234 95.285,0 155.284,-63.796 155.284,-178.137 V -449.66 h -66.699 v 277.218 c 0,80.991 -38.114,122.901 -105.743,122.901 -89.515,0 -134.328,-74.329 -134.328,-205.791 V -449.66 l -66.662,0 z" /></g><g
           transform="translate(3508.2441,410.9874)"
           id="g48"><path
             id="path50"
             style="fill:#1b1b1b;fill-opacity:1;fill-rule:nonzero;stroke:none"
             d="m 0,0 v 7.593 c 0,102.877 -55.235,172.442 -146.723,172.442 -91.413,0 -149.551,-66.699 -149.551,-174.34 v -7.631 c 0,-108.571 57.17,-172.404 149.551,-172.404 C -56.202,-174.34 0,-101.946 0,0 m -365.802,1.898 c 0,142.89 83.821,235.27 205.754,235.27 69.528,0 124.801,-34.28 157.22,-90.482 V 420.069 H 61.935 V -221.982 H -2.828 v 80.991 c -31.452,-56.202 -87.692,-90.52 -158.15,-90.52 -120.036,0 -204.824,88.622 -204.824,233.409" /></g><g
           transform="translate(3637.9941,267.1309)"
           id="g52"><path
             id="path54"
             style="fill:#1b1b1b;fill-opacity:1;fill-rule:nonzero;stroke:none"
             d="m 0,0 54.342,31.451 c 36.179,-47.642 92.382,-66.699 142.852,-66.699 61.935,0 101.016,29.516 101.016,78.125 0,49.541 -57.17,61.898 -132.43,80.024 C 78.163,142.889 12.432,166.71 12.432,250.53 c 0,75.26 68.56,130.495 159.08,130.495 76.19,0 137.157,-32.382 182.901,-85.719 l -53.374,-32.382 c -32.382,40.943 -80.024,63.833 -130.495,63.833 -57.17,0 -94.316,-28.585 -94.316,-72.43 0,-48.573 40.011,-58.101 121.934,-75.223 80.024,-18.126 163.844,-45.744 163.844,-131.462 0,-80.992 -67.63,-137.194 -166.673,-137.194 C 115.31,-89.552 41.948,-58.101 0,0" /></g></g></g></g></svg>